<?xml version="1.0" encoding="UTF-8"?>
<svg id="Layer_1" data-name="Layer 1" xmlns="http://www.w3.org/2000/svg" width="763.31" height="845.71" viewBox="0 0 763.31 845.71">
  <g>
    <path fill="#1a1a1a" d="M292.81,306.4c7.88,9.68,17.11,17.26,28.42,21.85,11.38,4.67,23.41,5.5,35.9,6.39-5.91,2.87-12.43,4.32-19.1,4.6-13.42.68-27.59-4.86-36.43-15.15-4.34-5.05-7.79-11.08-8.79-17.69h0Z"/>
    <path fill="#1a1a1a" d="M485.35,307.7c-.99,6.61-4.45,12.65-8.79,17.69-8.84,10.29-23.02,15.83-36.43,15.15-6.67-.28-13.19-1.73-19.1-4.6,12.49-.88,24.52-1.72,35.9-6.39,11.31-4.59,20.54-12.18,28.42-21.85h0Z"/>
    <path fill="#1a1a1a" d="M300.96,319.11c-3.06,3.61-7.01,7.8-12.07,7.65,4.45-1.12,6.83-5.8,8.51-9.66,0,0,3.56,2.01,3.56,2.01h0Z"/>
    <path fill="#1a1a1a" d="M313.17,331.33c-3.06,3.61-7.01,7.8-12.07,7.65,4.45-1.12,6.83-5.8,8.51-9.66,0,0,3.56,2.01,3.56,2.01h0Z"/>
    <path fill="#1a1a1a" d="M331.44,336.89c-2.1,4.24-4.92,9.26-9.87,10.33,4.05-2.16,5.23-7.27,5.93-11.43,0,0,3.94,1.1,3.94,1.1h0Z"/>
    <path fill="#1a1a1a" d="M480.97,318.38c2.16,2.38,4.85,4.71,7.94,5.81,1.05.35,2.19.54,3.36.36-3.42,1.51-7.39.14-10.63-1.28-1.13-.53-2.19-1.06-3.33-1.78l2.66-3.11h0Z"/>
    <path fill="#1a1a1a" d="M469.89,329.13c2.16,2.38,4.85,4.71,7.94,5.81,1.05.35,2.19.54,3.36.36-3.42,1.51-7.39.14-10.63-1.28-1.13-.53-2.19-1.06-3.33-1.78l2.66-3.11h0Z"/>
    <path fill="#1a1a1a" d="M454.85,334.96c1.52,2.83,3.57,5.74,6.31,7.55.94.59,1.99,1.05,3.17,1.16-3.68.65-7.21-1.64-10.01-3.81-.97-.78-1.87-1.56-2.8-2.53l3.33-2.38h0Z"/>
  </g>
  <path fill="#1a1a1a" d="M345.9,411.6c18.97,14.37,41.52,23.71,64.62,14.61,8.72-3.19,16.51-8.02,24.73-13.37-4.76,7.29-11.18,13.54-18.87,18.24-24.85,15.44-56.11,4.79-70.48-19.48h0Z"/>
  <path fill="#f99ba7" d="M322.74,409.77c0,13-8.11,24.09-19.54,28.5-10.77-17.16-17.11-36.89-20.82-57.39,3.08-1.06,6.39-1.62,9.83-1.62,16.86,0,30.53,13.66,30.53,30.51Z"/>
  <path fill="#f99ba7" d="M498.6,380.94c-3.74,19.74-9.88,38.35-19.57,54.69-.65.81-1.33,1.61-2.01,2.4-11.12-4.54-18.95-15.49-18.95-28.26,0-16.85,13.66-30.51,30.52-30.51,3.51,0,6.88.59,10.01,1.68Z"/>
  <path fill="#edd262" d="M609.18,92.95c-8.43-8.27-5.88-22.48-21.28-23.85-21.23-1.89-36.34,27.58-71.84,13.46-30.46-12.11-11.89-54.72-48.13-54.16,11.08-14.48,42.33-9.36,49.28,6.72,3.42,7.92.99,21.46,12.91,23.7,14.97,2.82,21.29-9.28,34.6-11.58,32.86-5.68,51.68,13.64,44.46,45.7Z"/>
  <path fill="#edd262" d="M694.43,178.2c-4.2,3.94-3.75.97-4.28-2.93-1.59-11.83.19-25.16-12.94-32.2-15.13-8.11-30.93,6.68-44.72,5.81-16.96-1.08-22.74-22.01-20.82-36.43,4.27.14,3.06,6.58,6.08,9.7,14.56,15.05,39.46-18.76,68.17,2.48,18.7,13.83,17.47,34.13,8.5,53.56Z"/>
  <path fill="#edd262" d="M731.45,519.94c-4.75-16.06,14.76-26.44,7.44-48.77-8.02-24.36-38.47-22.46-42.81-40.05-4.87-19.93,34.23-38.56,18.83-69.94-13.84-28.16-50.49-17.34-75.24-19.78-23.51-2.32-36.14-13.69-49.94-31.61,10.37,2.5,19.93,12.83,30.42,14.58,14.7,2.46,42.07,0,58.47,0,1.11,0,6.45,6.82,6.09-1.19-10.04-15.91-36.06-15.37-41.95-33.57-4.07-12.52-1.8-25.87.58-38.3l10.12,30.04c10.27,14.21,25.45,17.93,42.23,16.23,10.02-1.03,19.47-7.84,29.16-7.45,26.07,1.04,18.84,44.43-8.45,31.83,32.79,35.86,64.62-24.31,35.39-53.69-23.09-23.24-40.43-3.46-60.89-7.28-19.81-3.7-1.52-28.89-1.13-37.76.66-15.44-24.43-44.66-40.41-45.19-11.6-.39-15.71,5.38-30.16-1.31-28.38-13.18-10.33-54.75-26.5-69.19-21.54-19.25-47.21,1.88-71.8-7.92-4.62-1.85-38.53-24.99-42.04-28.57-7.31-7.48-9.26-19.8-18.41-27.9-9.88-8.71-26.1-11.4-37.2-18.82-19.37-12.92-23.54-28.39-53.42-23.36-31.7,5.33-25.46,28.89-39.03,40.09-14.65,12.16-32.35-10.57-43.88-16.83-32.4-17.54-55.52,5.75-50.4,39.47l12.23-18.16c31.16-24.46,48.34,12.89,76.67,13.5,25.43.56,44.16-38.41,76.71-17.22l-24.41,3.55c-17.74,9.02-28.17,26.8-50.28,27.19-19.13.32-37.11-14.99-53.16-13.86-21.41,1.49-25.6,28.75-59.27,20.39-14.71-3.65-49.18-27.63-35.71-44.56,12.33-15.52,29.26,6.16,30.37,4.82-4.84-34-52.85-27.13-56,3.9-1.58,15.55,19.79,23.31,12.79,39.32-5.09,11.62-19.53,9.07-29.4,12.04-33.87,10.25-26.85,52.11,6.84,56.8.29-5.84-5.5-8.18-6.82-13.93-5.11-22.46,22.25-27.72,39.51-24.82l33.08,11.93c-10.54,1-39.51-4.33-43.38,9.02-2.39,8.28,2.39,23.51-6.72,29.79-11.82,8.11-26.31-4.97-40.71-1.73-16.98,3.8-20.02,32.74-50.62,22.77-12.86-4.19-12.26-25.33-3.36-32.98,4.09-3.53,9.99-.19,8.38-7.36-32.45,2.64-39.7,37.79-14.66,57.3,27.11,21.13,48.2-7.4,75.6,9.7-.04,2.12-29.34,3.36-35.24,20.82-5.5,16.4,7.38,33.86-4.56,47.83-1.09,1.29-23.61,21.26-25.19,22.31-10.61,6.99-23.01,5.41-33.68,15.03-23.9,21.59-17.54,74.15,20.68,70.59-4.66-5.79-12.38-7.52-14.18-16.36-5.66-27.43,26.31-20.64,41.12-23.65,8.99-1.86,23.36-9.97,29.08-17.21,4.12-5.21,4.9-12.62,9.73-15.84,6.31,36.86-47.95,39.13-48.79,69.54-.33,11.08,9.81,22.5,2.72,33.59-6.72,10.55-27.14-2.15-35.77-3.07-47.61-5.12-56.36,78.58-7.13,77.9,2.49-.05,11.14-1.05,11.04-4.97-13.72.25-25.09-5.36-24.51-20.66,1.1-28.3,33.2-6.87,47.6-6.04,31.03,1.81,47.31-19.21,40.29-48.84l12.13,37.78c-.78,33.55-44.87,15.99-52.42,44.98-7.68,29.37,10.23,31.67,17.08,51.39,5.67,16.43-14.09,22.36-23.17,30.24-36.56,31.57-3.9,83.84,39.75,73.83,7.85-1.8,18.66-12.38,16.3-21.41-3.72-.41-1.65,3.55-5.4,5.65-25.34,14.23-51.46-16.37-25-37.32,7.8-6.19,24.48-10.55,28.6-20.09,5.8-13.4-2.39-26.19-.46-39.42,3.8-26.19,43.78-28.19,62.45-39.9,6.9-4.32,11.06-10.77,17.79-15.08-2.41,31.44-51.16,29.79-60.55,47.82-12.24,23.38,17.56,29.1,14.32,48.28-1.39,8.23-12.64,10.44-18.06,16.2-20.58,21.85,15.83,31.81,18.03,47.45,1.49,10.6-7.53,14.47-9.28,22.26-5.46,24.25,25.21,26.52,26.29,45.95,1.11,20.34-36.59,25.92-31.5,58.12,3.9,24.68,47.08,29.62,50.98,3.8-8.4,8.44-24.36,6.39-26.72-6.19-5-26.47,39.69-36.26,54.9-20.74,14.07-2.04,23.21-3.82,37.83-4.57,37.41,35.11,62.94,63.37,36.59l-22.05-2.3c-35.81-23.67,14.45-41.82,9.79-68.18-2.07-11.82-29.94-30.43-38.49-44.38-20.51-33.48-12.86-75.65,16.64-100.71-13.13,32.47-13.3,71.91,12.09,98.76,8.35,8.84,30.96,19.27,34.78,28.55,7.53,18.19-13.62,29.5-1.69,47.98,11.95,18.55,41.33,7.51,35.21.1-8.97,10.19-24.55,2.91-26.41-9.06-2.12-13.72,23.29-24.92,15.6-49.55-4.69-14.93-38.42-24.77-34.5-38.9,3.07-11.01,31.86-24.41,41.73-33.96,26.25-25.43,26.36-58,25.85-92.32,41.45-6.73,73.69-29.02,99.53-61.23.05,51.01-15.91,113.63,27.97,151.09,12.38,10.57,43.65,23.49,49.52,35.94,9.75,20.65-27.99,33.85-25.82,57.22,2.54,26.87,37.57,23.94,44.02,39.02,6.19,14.44-10.6,16.15-16.3,26.31-12.33,21.97,5.53,38.27,26.55,41.24,5.63-4.82-.53-3.89-2.28-5.11-41.03-28.19,15.8-40.66,20.12-60.01,7.06-31.74-52.18-36.68-26.41-62.89,12.69-12.89,29.94-13.79,28.09-40.08,8.01,7.09,31.23,11.72,34.37,21.86,4.41,14.08-25.92,27.79-9.89,53.51,9.94,15.96,43.58,22.96,47.38.13-15.88,12.61-36.86-3.88-25.43-21.81,7.97-12.51,23.07-13.69,27.7-30.88,8.32-31.11-31.74-39.79-22.85-64.12,2.53-6.94,12.16-11.69,13.32-19.61,6.46,3.6,4.48,11.67,9.65,18.35,6.47,8.37,25.26,13.82,28.28,22.94,5.58,16.88-26.11,50.18,3.66,66.92,11.15,6.26,33.35,6.21,32.69-8.31-9.23,7.24-22.17,7.94-29.12-2.59-14.54-22.02,24.37-36.55,27.76-57.23,5.33-32.5-27.73-33.84-29.09-53.65-1.13-15.91,25.43-25.67,21.39-50.36-4.64-28.42-50.6-22.65-50.02-41.63.71-21.84,38.13-23.77,51.87-9.04,8.71,9.36,4.21,15.26,6.48,25.17,4.75,20.73,37.17,18.29,41.73,29.11,6.62,15.79-3.41,28.84-20.29,26.24,12.42,14.3,34.53-2.24,36.46-18.53,3.12-26.44-27.43-31.63-31.16-44.15ZM520.35,286.03l17.71-17.24c.53-.52.67-1.32.34-1.98l-10.94-22.46c-.72-1.48.85-3.03,2.32-2.28l22.36,11.38c.66.33,1.45.21,1.98-.3l17.43-16.98c1.18-1.15,3.15-.13,2.89,1.5l-3.82,24.33c-.12.72.24,1.44.89,1.78l22.02,11.67c1.47.77,1.09,2.97-.55,3.21l-24.55,3.64c-.74.11-1.31.68-1.44,1.4l-4.34,24.55c-.29,1.63-2.49,1.95-3.23.47l-11.2-22.29c-.33-.65-1.05-1.03-1.77-.93l-24.66,3.46c-1.64.23-2.63-1.78-1.44-2.93ZM360.41,161.93l20.78-20.24c.62-.61.78-1.54.4-2.33l-12.84-26.36c-.85-1.74,1-3.55,2.72-2.68l26.25,13.36c.77.39,1.71.25,2.32-.35l20.47-19.93c1.38-1.35,3.69-.15,3.39,1.76l-4.49,28.56c-.13.85.29,1.69,1.05,2.09l25.85,13.7c1.72.91,1.28,3.49-.64,3.77l-28.83,4.28c-.86.12-1.54.79-1.69,1.64l-5.1,28.82c-.33,1.91-2.91,2.28-3.78.55l-13.15-26.17c-.39-.77-1.23-1.21-2.08-1.09l-28.95,4.06c-1.93.27-3.08-2.09-1.68-3.44ZM239.08,149.78l13.13-12.78c.39-.38.49-.97.25-1.47l-8.11-16.65c-.54-1.1.63-2.25,1.72-1.69l16.58,8.43c.49.25,1.08.16,1.47-.22l12.93-12.58c.87-.86,2.33-.1,2.14,1.11l-2.84,18.04c-.08.53.19,1.06.67,1.32l16.33,8.65c1.08.58.81,2.2-.41,2.38l-18.21,2.71c-.54.08-.97.49-1.07,1.03l-3.22,18.21c-.21,1.2-1.84,1.44-2.39.35l-8.31-16.53c-.24-.49-.77-.77-1.31-.69l-18.29,2.56c-1.21.17-1.94-1.32-1.06-2.18ZM218.88,379.64l-6.4-13.14c-.43-.87.5-1.77,1.36-1.34l13.09,6.66c.38.2.84.13,1.15-.17l10.21-9.94c.69-.67,1.84-.08,1.69.88l-2.24,14.24c-.07.42.14.84.52,1.04l12.89,6.83c.86.45.64,1.74-.32,1.88l-14.37,2.13c-.43.07-.77.4-.85.82l-2.54,14.37c-.16.95-1.45,1.14-1.88.28l-6.56-13.05c-.19-.38-.61-.6-1.04-.54l-14.43,2.02c-.96.13-1.54-1.04-.84-1.72l10.36-10.09c.31-.3.39-.77.2-1.16ZM190.33,281.72c-.54.09-.97.5-1.06,1.04l-3.22,18.21c-.22,1.2-1.84,1.44-2.39.35l-8.31-16.53c-.25-.49-.78-.77-1.32-.69l-18.28,2.56c-1.22.17-1.95-1.32-1.06-2.18l13.12-12.78c.4-.38.5-.97.26-1.47l-8.12-16.65c-.53-1.1.64-2.25,1.72-1.69l16.59,8.43c.48.25,1.07.16,1.46-.22l12.93-12.59c.88-.85,2.34-.09,2.15,1.11l-2.84,18.05c-.08.53.18,1.06.66,1.32l16.33,8.65c1.09.57.81,2.2-.41,2.38l-18.21,2.7ZM287.2,556l-28.19,4.18c-.84.12-1.51.77-1.65,1.61l-4.99,28.18c-.33,1.87-2.85,2.23-3.7.54l-12.86-25.59c-.38-.76-1.2-1.18-2.04-1.07l-28.3,3.97c-1.89.26-3.01-2.04-1.65-3.37l20.32-19.79c.61-.59.77-1.51.4-2.27l-12.56-25.78c-.83-1.7.98-3.48,2.66-2.62l25.67,13.06c.76.38,1.67.25,2.27-.34l20.01-19.49c1.36-1.32,3.62-.15,3.33,1.72l-4.4,27.93c-.13.83.29,1.65,1.03,2.05l25.28,13.39c1.68.89,1.25,3.41-.63,3.69ZM282.49,383.89v-2.54l-2.89.61-10.75,11.03,12.13,37.63s23.17,10.06,23.25,9.11-2.03-4.04-2.03-4.04l-8.78-17.75c-4.71-7.73-10.46-37.05-10.46-37.05-3.98-21.98-4.92-44.82-5.03-66.26l-.11-10.91c0-16.88,19.58-34.15,19.58-34.15,20.56-27.5,50.75-17.7,78.9-20.97,30.7-3.54,59.35-26.53,73.35-53.33-1.26,32.35,13.13,54.06,35.31,75.5,14.34,15.42,17.02,41.44,17.02,41.44,2.72,2.04.6,39.04,0,45.04-.81,8.03-1.91,15.95-3.38,23.7,1.65.57,3.24,1.28,4.74,2.12-3.13,20.86-11.97,37.61-24.31,52.57-11.26,19.01-27.31,34.93-49.98,45.97-37.57,18.24-69.8,9.38-101.15-15.99-9.83-7.96-17.75-17.2-24.12-27.34-.01,0-.01,0-.02,0-1.66-2.14-3.27-4.31-4.81-6.54-8.67-12.48-15.38-26.3-19.37-41.27M555.97,578.09l-14.37,2.13c-.43.06-.77.39-.85.82l-2.54,14.36c-.16.96-1.45,1.15-1.88.28l-6.56-13.05c-.19-.38-.61-.6-1.04-.54l-14.43,2.02c-.96.14-1.54-1.04-.84-1.71l10.36-10.09c.31-.31.39-.77.2-1.16l-6.4-13.15c-.43-.86.5-1.77,1.36-1.33l13.09,6.66c.38.19.84.12,1.15-.18l10.21-9.93c.69-.68,1.84-.08,1.69.87l-2.24,14.24c-.07.43.14.84.52,1.05l12.89,6.82c.86.46.64,1.74-.32,1.89ZM583.72,435.74l-18.21,2.7c-.54.08-.97.5-1.07,1.04l-3.22,18.2c-.21,1.21-1.84,1.45-2.39.35l-8.31-16.53c-.24-.49-.77-.76-1.31-.69l-18.29,2.56c-1.21.17-1.94-1.31-1.06-2.17l13.13-12.78c.39-.39.49-.98.25-1.47l-8.11-16.66c-.54-1.09.63-2.24,1.72-1.69l16.58,8.44c.49.25,1.08.16,1.47-.22l12.93-12.59c.87-.85,2.33-.1,2.14,1.11l-2.84,18.04c-.08.54.19,1.07.67,1.32l16.33,8.65c1.08.58.81,2.21-.41,2.39Z"/>
  <path fill="#edd262" d="M498.6,380.94s-12.52,49.49-26.55,65.22,42.57-32.61,42.57-32.61v-38.18h-15.03l-.99,5.57Z"/>
</svg>
